<?xml version="1.0" encoding="UTF-8"?>
<svg width="376px" height="95px" viewBox="0 0 376 95" version="1.1" xmlns="http://www.w3.org/2000/svg" xmlns:xlink="http://www.w3.org/1999/xlink">
    <title>2D1F6905-B826-43E6-ABE6-949B1D786D98@1x</title>
    <g id="Page-1" stroke="none" stroke-width="1" fill="none" fill-rule="evenodd">
        <g id="example-test-light" transform="translate(-301.000000, -139.000000)" fill-rule="nonzero">
            <g id="mapall_vector_logo_website" transform="translate(301.000000, 139.000000)">
                <polygon id="Path" stroke="#434D59" stroke-width="2.16" fill="#434D59" points="141.077773 40.3167415 124.42919 61.7955142 122.074465 61.7955142 105.523682 40.3167415 105.523682 76.6414132 91.8655249 76.6414132 91.8655249 17.2615796 103.63915 17.2615796 123.293204 42.0586703 142.943497 17.2615796 154.720884 17.2615796 154.720884 76.6414132 141.077773 76.6414132"></polygon>
                <path d="M204.887346,61.4220765 C204.887346,63.6945287 205.456628,65.6412627 207.492471,65.6412627 C208.955262,65.6412627 210.25971,65.1148113 211.560387,64.4103511 L212.050497,76.0869678 C208.80771,77.3657407 205.354958,78.0223396 201.871283,78.0223396 C196.97018,78.0223396 193.64874,75.9998572 192.185949,71.4284409 C189.101877,75.5311711 184.277946,77.939503 179.160325,77.9314415 C167.522089,77.9314415 159.555912,68.0841488 159.555912,54.2865768 C159.555912,40.310996 167.5334,30.38038 179.160325,30.38038 C184.438436,30.38038 188.521432,32.137743 191.224579,35.2131283 L191.224579,31.1833131 L204.887346,31.1833131 L204.887346,61.4220765 Z M191.213268,46.5678142 C189.501652,44.7233406 186.248074,43.2273096 183.073667,43.2273096 C177.132022,43.2273096 173.467505,47.5336064 173.467505,54.3017264 C173.467505,60.8956251 177.211193,65.201922 183.073667,65.201922 C186.107503,65.1515106 189.012105,63.9594577 191.213268,61.8614173 L191.213268,46.5678142 Z" id="Shape" stroke="#434D59" stroke-width="2.16" fill="#434D59"></path>
                <path d="M218.507353,93.2125296 L218.507353,46.9388705 C218.507353,44.4982767 218.100856,42.7560681 215.906525,42.7560681 C214.197731,42.7560681 212.169009,43.5408129 211.766276,43.9763651 L211.359779,32.2990622 C211.683471,32.0362291 216.316785,30.38038 221.435638,30.38038 C226.227035,30.38038 229.640858,32.1263433 231.184041,36.5682241 C233.867675,32.9974476 238.011687,30.4704942 244.188185,30.4704942 C255.807227,30.4704942 263.854365,40.3154743 263.854365,54.1705378 C263.854365,67.8528823 255.807227,77.7016171 244.188185,77.7016171 C239.069332,77.7016171 234.92532,75.7829349 232.143826,72.9931484 L232.143826,93.2125296 L218.507353,93.2125296 Z M232.155117,46.5033184 L232.155117,61.7513977 C234.375353,63.7848036 237.267608,64.9327606 240.281296,64.9767363 C246.134102,64.9767363 249.954422,60.793934 249.954422,54.1705378 C249.954422,47.4607821 246.216907,43.1916203 240.281296,43.1916203 C237.112124,43.1916203 233.863911,44.6747504 232.155117,46.5033184 L232.155117,46.5033184 Z" id="Shape" stroke="#434D59" stroke-width="2.16" fill="#434D59"></path>
                <path d="M283.277015,17.2615796 L299.392437,17.2615796 L320.49326,76.6414132 L306.586416,76.6414132 L302.824636,65.7301524 L279.530388,65.7301524 L275.685265,76.6414132 L261.78221,76.6414132 L283.277015,17.2615796 Z M282.939857,54.9882043 L299.381072,54.9882043 L291.365033,31.7585064 L282.939857,54.9882043 Z" id="Shape" stroke="#434D59" stroke-width="2.16" fill="#434D59"></path>
                <path d="M334.914934,14.4997268 L334.914934,60.5816486 C334.914934,63.2843895 335.649371,65.0285784 337.773183,65.0285784 C339.294071,64.9614097 340.778247,64.5431118 342.10788,63.8068944 L342.596243,75.3959771 C339.280095,76.6510734 335.764481,77.30671 332.215686,77.3318764 C325.431602,77.3318764 321.183978,73.8397396 321.183978,64.2429416 L321.183978,14.4997268 L334.914934,14.4997268 Z" id="Path" stroke="#434D59" stroke-width="2.16" fill="#434D59"></path>
                <path d="M359.090072,14.4997268 L359.090072,60.5816486 C359.090072,63.2843895 359.824509,65.0285784 361.952107,65.0285784 C363.420983,65.0285784 364.893644,64.5060736 366.283018,63.8068944 L366.771381,75.4110132 C363.454284,76.6609756 359.9387,77.3115144 356.390824,77.3318764 C349.60674,77.3318764 345.359116,73.8397396 345.359116,64.2429416 L345.359116,14.4997268 L359.090072,14.4997268 Z" id="Path" stroke="#434D59" stroke-width="2.16" fill="#434D59"></path>
                <ellipse id="Oval" fill="#5CC4CF" opacity="0.4" cx="36.4257338" cy="88.131063" rx="22.4483425" ry="5.86893705"></ellipse>
                <ellipse id="Oval" fill="#5CC4CF" cx="36.4257338" cy="87.7858314" rx="13.4690055" ry="3.45231591"></ellipse>
                <path d="M72.4420848,34.7115895 C72.4685151,34.4971578 72.4609636,34.3617273 72.4194302,34.3353936 L72.4194302,34.3353936 C71.1658763,15.1494062 55.4511436,0 36.2476044,0 L36.2476044,0 C16.2360514,0 0.000130894957,16.4849014 0.000130894957,36.8107622 C-0.0240766587,45.9060762 3.31016532,54.6925705 9.36793544,61.4967327 C9.43846377,61.6941459 9.53495768,61.881368 9.65489356,62.0535026 L34.9072079,87.826679 C35.2613907,88.18046 35.7423041,88.3792873 36.2438286,88.3792873 C36.7453531,88.3792873 37.2262665,88.18046 37.5804493,87.826679 L61.269597,63.452951 C61.7868768,62.9563725 62.2852777,62.4409843 62.7799029,61.9143101 L62.7799029,61.9143101 C69.0718672,55.0594623 72.5499862,46.0999037 72.5252837,36.8107622 C72.502497,36.0922282 72.4798424,35.4000278 72.4420848,34.7115895 Z M36.2476044,63.7200501 C21.5976373,63.7200501 9.72285733,51.6629737 9.72285733,36.7919524 C9.72285733,21.9209312 21.5938615,9.86009277 36.2476044,9.86009277 C50.9013472,9.86009277 62.7685756,21.9171692 62.7685756,36.7919524 C62.7685756,51.6667356 50.8937956,63.7200501 36.2476044,63.7200501 L36.2476044,63.7200501 Z" id="Shape" fill="#10929C"></path>
                <path d="M20.721547,31.0783892 C19.417972,29.5392912 18.2060334,27.9228306 17.0921742,26.2376009 C15.5176628,29.2191793 14.6329768,32.5247464 14.5050829,35.9040855 L14.5050829,35.9040855 C16.4659189,34.1533151 18.5429504,32.5409639 20.721547,31.0783892 L20.721547,31.0783892 Z" id="Path" fill="#10929C"></path>
                <path d="M28.7771524,26.8390097 C29.7314183,24.9865625 30.842649,23.2213849 32.0983496,21.563325 C31.7348885,20.9325198 31.7328953,20.1530516 32.0931254,19.5203506 C32.4533554,18.8876497 33.1206778,18.498547 33.8421672,18.5005182 C34.0815456,18.5017139 34.3186978,18.5471241 34.5419639,18.634516 C35.8379311,17.2187989 37.2200436,15.8864338 38.680221,14.6452101 C37.8691947,14.5483928 37.0532548,14.4997268 36.2366067,14.4997268 C28.7889398,14.5191138 21.878487,18.4272781 17.958674,24.8366997 C19.1218748,26.8039612 20.4602016,28.6595648 21.9569718,30.38038 C24.1256875,29.0039227 26.4075143,27.819087 28.7771524,26.8390097 L28.7771524,26.8390097 Z" id="Path" fill="#10929C"></path>
                <path d="M23.863171,45.905811 C23.8628942,45.1604359 24.2719981,44.4752284 24.9280187,44.1222994 C24.8225688,42.334902 24.8608986,40.5419127 25.0426377,38.7606641 C24.1392578,38.4395461 23.418152,37.7441196 23.0640643,36.8525498 C22.7099766,35.9609799 22.7573122,34.9598967 23.1939439,34.105773 C22.6356383,33.5692394 22.0847276,33.0216052 21.5670933,32.4517696 C19.0472814,34.0718924 16.6831413,35.9225427 14.5050829,37.9799153 C14.6722198,42.1950296 16.058095,46.2710171 18.4945642,49.7133491 C20.8227152,49.2777932 23.1883088,49.0745179 25.5565746,49.1065112 C25.4752321,48.6809846 25.4049817,48.2628584 25.3384287,47.8447323 C24.4701535,47.5992374 23.8686992,46.8087501 23.863171,45.905811 L23.863171,45.905811 Z" id="Path" fill="#10929C"></path>
                <path d="M58.0203315,36.9528048 C58.0272889,33.2196827 57.0311113,29.547275 55.1270349,26.2868049 C54.2594442,26.1499664 53.3686145,26.035318 52.4661653,25.9169713 C52.0493419,26.5321973 51.3100491,26.8764894 50.5457047,26.8113388 C49.7813603,26.7461882 49.1176212,26.2823056 48.8215098,25.6063111 C48.4341925,25.5841211 48.0468753,25.5582327 47.659558,25.5471377 C48.9994401,30.0990763 49.2757832,34.8764902 48.4690511,39.5416398 C49.3241698,39.908113 49.9886985,40.5879682 50.3126813,41.4277909 C52.8347334,41.2348345 55.3322584,40.8163207 57.7724119,40.1777535 C57.9367806,39.1099273 58.0196267,38.0321033 58.0203315,36.9528048 Z" id="Path" fill="#10929C"></path>
                <path d="M28.2615163,57.1998756 C27.388809,54.9934417 26.6814987,52.7288354 26.1450962,50.423701 C23.8680894,50.3480176 21.5889056,50.4884528 19.3401105,50.8430002 C21.7148607,53.7057636 24.8061,55.9315665 28.3194475,57.3084441 C28.305547,57.2845572 28.2939129,57.259496 28.2846888,57.2335693 C28.2756527,57.2232399 28.267877,57.2119338 28.2615163,57.1998756 L28.2615163,57.1998756 Z" id="Path" fill="#10929C"></path>
                <path d="M34.2586135,22.7404436 C33.978526,22.7391178 33.7018933,22.6776672 33.4469353,22.5601391 C32.5816657,23.7332492 31.7918267,24.9616112 31.0823204,26.2376009 C35.9704099,24.5364765 41.1102327,23.6979169 46.2781215,23.7584132 C45.3833088,20.9572148 44.1902669,18.2630697 42.7200803,15.723591 L42.7200803,15.723591 C42.0184584,15.5069955 41.3058138,15.3289362 40.5852556,15.19019 C38.9121878,16.533624 37.3435094,18.0054401 35.8930887,19.5926265 C36.1268986,19.9212847 36.2561985,20.3144229 36.263718,20.71953 C36.2657239,21.2580883 36.0547572,21.7750121 35.6779673,22.1547727 C35.3011775,22.5345334 34.7899763,22.7454714 34.2586135,22.7404436 L34.2586135,22.7404436 Z" id="Path" fill="#10929C"></path>
                <path d="M50.6551328,22.2391559 C51.6283773,22.2390828 52.4556244,22.990067 52.6017024,24.0062736 C53.0264756,24.0569856 53.4475552,24.1076975 53.8760221,24.1662114 C51.5058862,20.4489535 48.1386822,17.5638443 44.2059669,15.8806532 C45.4716728,18.3487804 46.5142106,20.9374454 47.3197394,23.6122805 C47.8036115,23.6122805 48.294871,23.6434878 48.7972116,23.6707943 C49.0598006,22.8206925 49.8084567,22.2438086 50.6551328,22.2391559 Z" id="Path" fill="#10929C"></path>
                <path d="M47.4157751,46.2290591 C47.2799678,46.2279054 47.1443269,46.2191881 47.0094703,46.2029469 C46.0784794,48.6023747 44.9076852,50.8996914 43.5152486,53.0592623 C44.004357,53.5589369 44.2003215,54.2798874 44.0323639,54.9617219 C44.7895684,55.4765051 45.5430792,56.0248612 46.2928963,56.6179809 C51.9004604,53.6546118 55.9358811,48.3529901 57.3296133,42.1182541 C55.1518951,42.5868157 52.9474418,42.9182092 50.7290064,43.1105174 C50.6050453,44.8665608 49.1589862,46.2276476 47.4157751,46.2290591 L47.4157751,46.2290591 Z" id="Path" fill="#10929C"></path>
                <path d="M42.1406583,52.6642113 C43.519772,50.4826808 44.674649,48.1653163 45.5874033,45.7480075 C44.5943726,45.18656 43.9407683,44.167322 43.8410525,43.0247281 C40.5648158,42.7986922 37.3391323,42.0904218 34.2667609,40.9224799 C33.6937488,41.542059 32.8022054,41.7444329 32.0207225,41.4323143 C31.2392396,41.1201956 30.7276667,40.3574272 30.7319324,39.5106948 C30.7279703,39.4438939 30.7279703,39.3769143 30.7319324,39.3101133 C29.965989,38.893521 29.2153646,38.4486416 28.480059,37.975475 C27.9052819,38.4706286 27.1828787,38.7584159 26.4273308,38.7932303 C26.2548464,40.509076 26.2062089,42.2352667 26.2818016,43.9582035 C27.2350784,44.0988951 27.969522,44.8774201 28.0603521,45.8435029 C28.1511821,46.8095857 27.5748848,47.7131291 26.6647733,48.0315505 C26.7337082,48.5021455 26.8103025,48.9688832 26.898386,49.4356209 C31.5816089,49.6881298 36.154736,50.9607317 40.3023943,53.165665 C40.684639,52.8179953 41.1813768,52.6255645 41.6964112,52.625638 C41.8454154,52.6231075 41.9942824,52.6360334 42.1406583,52.6642113 Z" id="Path" fill="#10929C"></path>
                <path d="M39.8003046,53.8369315 C36.0150832,51.8929526 31.876012,50.7254846 27.6287293,50.4038123 C28.1749396,52.808375 28.9320303,55.1606285 29.8912982,57.4335325 L29.9771713,57.6973328 C32.0385118,58.354145 34.1897539,58.6888024 36.3541807,58.6893705 C36.5968655,58.6893705 36.8358166,58.6893705 37.0785014,58.6893705 L37.1046367,58.663362 L37.1046367,58.663362 C38.1504164,57.5742395 39.1374736,56.4307406 40.0616575,55.2376738 C39.8144364,54.818975 39.7269625,54.325695 39.8152391,53.848078 L39.8003046,53.8369315 Z" id="Path" fill="#10929C"></path>
                <path d="M26.486105,32.2897763 C26.8119597,31.1714585 27.1933922,30.0730784 27.6287293,28.9994537 C25.9660779,29.7941392 24.3512095,30.7015021 22.7937017,31.7161607 C23.2296869,32.2101074 23.6742449,32.6854648 24.1273757,33.1422327 C24.7221051,32.579847 25.4838665,32.2687154 26.273011,32.2658756 C26.3464917,32.2658756 26.4162983,32.2897763 26.486105,32.2897763 Z" id="Path" fill="#10929C"></path>
                <path d="M30.1732875,35.5130975 C30.1734261,35.9932277 30.0684003,36.4675962 29.8655501,36.9030505 C30.5255171,37.2998278 31.1928995,37.6694962 31.8676973,38.0120555 C32.4426188,37.5251048 33.2457498,37.4077347 33.9366507,37.709697 C34.6275515,38.0116594 35.0852084,38.6800646 35.115625,39.4315819 C37.9885262,40.4970605 40.9932502,41.1686 44.0474261,41.4277909 C44.5362191,40.1328295 45.7778417,39.2746617 47.165585,39.2726245 L47.2286155,39.2726245 C47.9920426,34.7008627 47.7388987,30.0177072 46.4870795,25.5542326 C40.8350164,25.4530136 35.2161029,26.435666 29.935996,28.4487356 C29.3032897,29.7702724 28.7631477,31.1339149 28.3194475,32.5298741 C29.4559425,33.0920606 30.1743787,34.2481774 30.1732875,35.5130975 L30.1732875,35.5130975 Z" id="Path" fill="#10929C"></path>
                <path d="M40.8577395,56.2040718 C40.1787283,57.0300464 39.4528888,57.8584793 38.680221,58.6893705 C40.8238665,58.4494713 42.9184693,57.9127353 44.8966851,57.0964194 C44.3191354,56.6908068 43.7259762,56.3036312 43.12111,55.9275178 C42.4885265,56.4294035 41.604622,56.537405 40.8577395,56.2040718 L40.8577395,56.2040718 Z" id="Path" fill="#10929C"></path>
                <polygon id="Path" fill="#434D59" points="363.903931 14.6517485 361.936354 14.6517485 361.936354 13.8092636 366.771381 13.8092636 366.771381 14.6517485 364.803804 14.6517485 364.803804 20.7138955 363.903931 20.7138955"></polygon>
                <polygon id="Path" fill="#434D59" points="374.140032 20.7138955 373.516827 15.3744134 372.033007 20.7138955 371.168682 20.7138955 369.647766 15.400624 369.054238 20.7138955 368.152818 20.7138955 368.935533 13.8092636 369.86292 13.8092636 371.606409 19.568116 373.323931 13.8092636 374.258737 13.8092636 375.06 20.7138955"></polygon>
            </g>
        </g>
    </g>
</svg>